<?xml version="1.0" encoding="utf-8"?>
<!-- Generator: Adobe Illustrator 19.2.1, SVG Export Plug-In . SVG Version: 6.00 Build 0)  -->
<svg version="1.1" id="Layer_1" xmlns="http://www.w3.org/2000/svg" xmlns:xlink="http://www.w3.org/1999/xlink" x="0px" y="0px"
	 viewBox="0 0 424.3 423.9" style="enable-background:new 0 0 424.3 423.9;" xml:space="preserve">
<style type="text/css">
	.st0{fill:url(#SVGID_1_);}
	.st1{fill:url(#SVGID_2_);}
</style>
<g id="Layer_4">
	
		<linearGradient id="SVGID_1_" gradientUnits="userSpaceOnUse" x1="43.1932" y1="321.9067" x2="314.7159" y2="50.3842" gradientTransform="matrix(1 0 0 -1 0 424)">
		<stop  offset="0" style="stop-color:#8C3E97"/>
		<stop  offset="1" style="stop-color:#0091D1"/>
	</linearGradient>
	<path class="st0" d="M185.7,304.5c-1.9-4.9-2.8-12.9-2.8-23.9v-46v-8.4v-22.9v-60c0-11,0.9-18.9,2.7-23.8c1.8-4.8,5-9.3,9.5-13.5
		h-83.9c4.5,4.1,7.6,8.5,9.5,13.1c1.8,4.7,2.7,12.7,2.7,24.1v137.3c0,11-0.9,19-2.7,23.9c-1.8,4.9-5,9.5-9.5,13.7h83.9
		C190.7,314,187.6,309.5,185.7,304.5z"/>
</g>
<g id="Layer_6">
	
		<linearGradient id="SVGID_2_" gradientUnits="userSpaceOnUse" x1="103.2291" y1="381.943" x2="374.7519" y2="110.4203" gradientTransform="matrix(1 0 0 -1 0 424)">
		<stop  offset="0" style="stop-color:#8C3E97"/>
		<stop  offset="1" style="stop-color:#0091D1"/>
	</linearGradient>
	<path class="st1" d="M178.5,203.3h9.7c0,0,38.8,4.1,42.2-37.5c3.4-41.7,28.4-59.7,47.1-59.7c7.8,0,17.3,0,17.3,0
		s-4.5,12.5-20.1,22.3s-22,25-23.1,40.1c-1.1,15.1,9.9,22.4-11.5,41.7c-9.4,6.4,1.7,11.7,1.7,11.7l6.4,1.6c0,0,1.1,3.6-0.4,5.6
		s-3.4,4-3.4,4s-0.1,4.1,7.5,6.1c-4.5,1.7-5.7,6.8-2.8,10.3c5.2,0.6,8.9,2.3,10.9,7.4c1.9,5.1,1.1,17.6,14.1,14.5s21.3-5.7,21.3-5.7
		s16.3,3.8,16.3,23.8c0,10.5-7.5,29.2-36.6,29.2c-45,0-48.5-38.2-49.9-45c-1.5-6.8-8-47.2-31.2-47.2c-1.8,0-12.4,0-12.4,0
		L178.5,203.3z"/>
</g>
</svg>
